<mxfile host="app.diagrams.net" agent="Mozilla/5.0 (Macintosh; Intel Mac OS X 10_15_7) AppleWebKit/537.36 (KHTML, like Gecko) Chrome/129.0.0.0 Safari/537.36" version="24.7.14">
  <diagram id="07fea595-8f29-1299-0266-81d95cde20df" name="Page-1">
    <mxGraphModel dx="1434" dy="795" grid="1" gridSize="10" guides="1" tooltips="1" connect="1" arrows="1" fold="1" page="1" pageScale="1" pageWidth="1169" pageHeight="827" background="#ffffff" math="0" shadow="0">
      <root>
        <mxCell id="0" />
        <mxCell id="1" parent="0" />
        <mxCell id="6_1P0YeV2PhCM8zlHb68-222" value="" style="rounded=1;whiteSpace=wrap;html=1;" vertex="1" parent="1">
          <mxGeometry x="620" y="160" width="420" height="320" as="geometry" />
        </mxCell>
        <mxCell id="6_1P0YeV2PhCM8zlHb68-231" style="edgeStyle=orthogonalEdgeStyle;rounded=0;orthogonalLoop=1;jettySize=auto;html=1;exitX=1;exitY=0.5;exitDx=0;exitDy=0;entryX=0;entryY=0.5;entryDx=0;entryDy=0;" edge="1" parent="1" source="6_1P0YeV2PhCM8zlHb68-218" target="6_1P0YeV2PhCM8zlHb68-221">
          <mxGeometry relative="1" as="geometry" />
        </mxCell>
        <mxCell id="6_1P0YeV2PhCM8zlHb68-232" style="edgeStyle=orthogonalEdgeStyle;rounded=0;orthogonalLoop=1;jettySize=auto;html=1;exitX=1;exitY=0.5;exitDx=0;exitDy=0;entryX=0;entryY=0.5;entryDx=0;entryDy=0;" edge="1" parent="1" source="6_1P0YeV2PhCM8zlHb68-218" target="6_1P0YeV2PhCM8zlHb68-220">
          <mxGeometry relative="1" as="geometry" />
        </mxCell>
        <mxCell id="6_1P0YeV2PhCM8zlHb68-233" style="edgeStyle=orthogonalEdgeStyle;rounded=0;orthogonalLoop=1;jettySize=auto;html=1;exitX=1;exitY=0.5;exitDx=0;exitDy=0;entryX=0;entryY=0.5;entryDx=0;entryDy=0;" edge="1" parent="1" source="6_1P0YeV2PhCM8zlHb68-218" target="6_1P0YeV2PhCM8zlHb68-219">
          <mxGeometry relative="1" as="geometry" />
        </mxCell>
        <mxCell id="6_1P0YeV2PhCM8zlHb68-218" value="国控东莞&lt;div&gt;销售&lt;/div&gt;" style="whiteSpace=wrap;shadow=0;fontColor=#FFFFFF;fontFamily=Helvetica;fontStyle=0;html=1;fontSize=12;plain-purple;strokeColor=none;fillColor=#2f5b7c;gradientColor=none;spacing=6;verticalAlign=middle;" vertex="1" parent="1">
          <mxGeometry x="644.5" y="198.5" width="120" height="60" as="geometry" />
        </mxCell>
        <mxCell id="6_1P0YeV2PhCM8zlHb68-219" value="C医院&lt;div&gt;进&lt;/div&gt;" style="whiteSpace=wrap;shadow=0;fontColor=#FFFFFF;fontFamily=Helvetica;fontStyle=0;html=1;fontSize=12;plain-purple;strokeColor=none;fillColor=#2f5b7c;gradientColor=none;spacing=6;verticalAlign=middle;" vertex="1" parent="1">
          <mxGeometry x="880" y="390" width="120" height="60" as="geometry" />
        </mxCell>
        <mxCell id="6_1P0YeV2PhCM8zlHb68-220" value="B医院&lt;div&gt;进&lt;/div&gt;" style="whiteSpace=wrap;shadow=0;fontColor=#FFFFFF;fontFamily=Helvetica;fontStyle=0;html=1;fontSize=12;plain-purple;strokeColor=none;fillColor=#2f5b7c;gradientColor=none;spacing=6;verticalAlign=middle;" vertex="1" parent="1">
          <mxGeometry x="880" y="300" width="120" height="60" as="geometry" />
        </mxCell>
        <mxCell id="6_1P0YeV2PhCM8zlHb68-221" value="A医院&lt;div&gt;进&lt;/div&gt;" style="whiteSpace=wrap;shadow=0;fontColor=#FFFFFF;fontFamily=Helvetica;fontStyle=0;html=1;fontSize=12;plain-purple;strokeColor=none;fillColor=#2f5b7c;gradientColor=none;spacing=6;verticalAlign=middle;" vertex="1" parent="1">
          <mxGeometry x="880" y="198.5" width="120" height="60" as="geometry" />
        </mxCell>
        <mxCell id="6_1P0YeV2PhCM8zlHb68-223" value="国控东莞 4 月.xlsx" style="text;html=1;align=center;verticalAlign=middle;whiteSpace=wrap;rounded=0;" vertex="1" parent="1">
          <mxGeometry x="649.5" y="414" width="110" height="30" as="geometry" />
        </mxCell>
        <mxCell id="6_1P0YeV2PhCM8zlHb68-234" style="edgeStyle=orthogonalEdgeStyle;rounded=0;orthogonalLoop=1;jettySize=auto;html=1;exitX=1;exitY=0.5;exitDx=0;exitDy=0;entryX=0;entryY=0.5;entryDx=0;entryDy=0;shape=link;" edge="1" parent="1" source="6_1P0YeV2PhCM8zlHb68-224" target="6_1P0YeV2PhCM8zlHb68-222">
          <mxGeometry relative="1" as="geometry" />
        </mxCell>
        <mxCell id="6_1P0YeV2PhCM8zlHb68-224" value="" style="rounded=1;whiteSpace=wrap;html=1;" vertex="1" parent="1">
          <mxGeometry x="110" y="160" width="420" height="320" as="geometry" />
        </mxCell>
        <mxCell id="6_1P0YeV2PhCM8zlHb68-230" style="edgeStyle=orthogonalEdgeStyle;rounded=0;orthogonalLoop=1;jettySize=auto;html=1;exitX=1;exitY=0.5;exitDx=0;exitDy=0;entryX=0;entryY=0.5;entryDx=0;entryDy=0;" edge="1" parent="1" source="6_1P0YeV2PhCM8zlHb68-225" target="6_1P0YeV2PhCM8zlHb68-228">
          <mxGeometry relative="1" as="geometry" />
        </mxCell>
        <mxCell id="6_1P0YeV2PhCM8zlHb68-225" value="丰安" style="whiteSpace=wrap;shadow=0;fontColor=#FFFFFF;fontFamily=Helvetica;fontStyle=0;html=1;fontSize=12;plain-purple;strokeColor=none;fillColor=#2f5b7c;gradientColor=none;spacing=6;verticalAlign=middle;" vertex="1" parent="1">
          <mxGeometry x="134.5" y="198.5" width="120" height="60" as="geometry" />
        </mxCell>
        <mxCell id="6_1P0YeV2PhCM8zlHb68-226" value="。。。" style="whiteSpace=wrap;shadow=0;fontColor=#FFFFFF;fontFamily=Helvetica;fontStyle=0;html=1;fontSize=12;plain-purple;strokeColor=none;fillColor=#2f5b7c;gradientColor=none;spacing=6;verticalAlign=middle;" vertex="1" parent="1">
          <mxGeometry x="370" y="290" width="120" height="60" as="geometry" />
        </mxCell>
        <mxCell id="6_1P0YeV2PhCM8zlHb68-228" value="国控东莞&lt;div&gt;进&lt;/div&gt;" style="whiteSpace=wrap;shadow=0;fontColor=#FFFFFF;fontFamily=Helvetica;fontStyle=0;html=1;fontSize=12;plain-purple;strokeColor=none;fillColor=#2f5b7c;gradientColor=none;spacing=6;verticalAlign=middle;" vertex="1" parent="1">
          <mxGeometry x="370" y="198.5" width="120" height="60" as="geometry" />
        </mxCell>
        <mxCell id="6_1P0YeV2PhCM8zlHb68-229" value="丰安发货.xlsx" style="text;html=1;align=center;verticalAlign=middle;whiteSpace=wrap;rounded=0;" vertex="1" parent="1">
          <mxGeometry x="139.5" y="414" width="110" height="30" as="geometry" />
        </mxCell>
      </root>
    </mxGraphModel>
  </diagram>
</mxfile>
